<svg xmlns="http://www.w3.org/2000/svg" viewBox="0 0 981.31 350.4"><defs><style>.cls-1{fill:#ededed;}.cls-2{fill:#f9bdc0;}.cls-3{fill:#f9c0c3;}</style></defs><g id="Layer_2" data-name="Layer 2"><g id="Layer_1-2" data-name="Layer 1"><path class="cls-1" d="M0,130V8.85C0,3.31,2.53.29,7.72.29,48.85.27,90-.56,131.1.7c27.9.85,50.66,14.46,68.13,36.07,29.89,37,30,88.74.1,125.27-16.94,20.71-39.19,32.29-65.88,35.37-11.07,1.28-22.13.39-33.19.61-3,.06-3.82.81-3.8,3.81.12,17.91,0,35.82.08,53.73,0,3.27-.74,4.41-4.27,4.39-27.93-.14-55.86,0-83.79-.07-5.73,0-8.42-2.86-8.42-8.8Q0,190.53.05,130Z"/><path class="cls-2" d="M221.58,140.35c-.5,40.71,1.61,80.22-.8,119.57-2.8,45.73-38.17,82.59-82.95,89.43-9.19,1.4-18.45,1-27.69.93-4.54,0-6.47-2.7-6.47-8q0-39.15.08-78.32c0-18.06.07-36.13-.18-54.19-.06-3.74,1.12-4.44,4.53-4.34,16.72.5,33.4.11,49.37-5.68C186,189.36,207.16,170.79,219.85,143A30.64,30.64,0,0,1,221.58,140.35Z"/><path class="cls-3" d="M957.34,175.2a24,24,0,1,1-.47,47.93c-13.68-.17-24.55-11-24.43-24.27S943.51,175.14,957.34,175.2Z"/><path class="cls-1" d="M936.41,73.91c0-2-.65-2.51-2.56-2.55-13.61-.31-26,3-36.34,12.24-3.72,3.31-6,7.7-9.25,13.07,0-7.35-.17-13.27.07-19.19.13-3.17-.67-4.23-4-4.15-10,.25-20,.29-30,0-3.72-.1-4.27,1.25-4.22,4.52.18,12.49.09,25,.09,37.48,0,33.49.08,67-.16,100.46,0,4.58,1.26,5.52,5.55,5.36,9.48-.36,19-.32,28.48-.06,3.65.1,4.39-1.17,4.34-4.51q-.25-16.74,0-33.49c.24-14.3-1.14-28.66.88-42.88,1.78-12.46,8-21.86,20.13-26.93,7.64-3.2,15.55-3,23.51-2.93,1.79,0,3.52.62,3.48-2.47C936.24,96.57,936.32,85.24,936.41,73.91Z"/><path class="cls-1" d="M341.52,91.81c0-5.63-.15-10.09.05-14.54.13-2.93-.63-4-3.83-3.93-10.33.23-20.66.19-31,0-2.88,0-3.55.84-3.54,3.62q.12,96.95,0,193.89c0,2.81.72,3.64,3.56,3.59,10.16-.17,20.33-.25,30.48,0,3.67.1,4.3-1.15,4.29-4.47-.09-20.82,0-41.64.16-62.46,0-.92-1-2.33.87-3,10.68,12.45,24.66,18.12,40.72,19,30.67,1.69,54.84-9.51,69.14-37.43,10.91-21.3,11.87-44,4.74-66.78C439.45,62.61,367.62,56.5,341.52,91.81Zm40.1,96.63c-20.31.25-41.4-14.26-40.76-41.86.55-23.84,17.58-41.21,41.4-41.12,23.45.08,40.88,18.5,40.73,43.05C422.86,171.45,405.2,188.5,381.62,188.44Z"/><path class="cls-1" d="M634.41,73.3c-9.82.35-19.65.29-29.47,0-3.55-.09-5.1.57-4.74,4.52.39,4.22.09,8.51.09,13.72C588.72,77.12,574,70.8,556.93,70c-23.4-1-43.58,6.33-58.75,24.71-16.43,19.9-20.44,43.23-16.58,68,3,19.17,11.82,35.49,27.58,47.43,13.86,10.51,29.76,14,46.89,13.47,17.37-.54,32.15-6.55,44.3-20.43,0,5.39.17,9.85-.06,14.3-.15,2.95,1,3.63,3.73,3.59,9.33-.14,18.65,0,28-.09,7.42-.11,6.73,1.46,6.82-7,.14-12.15.06-24.31,0-36.46,0-33.14-.07-66.27,0-99.4C638.93,74.68,638.45,73.16,634.41,73.3ZM559.73,188.48c-21.94,0-41.37-16.41-40.64-40.91,0-24.35,17.47-42.11,41.41-42.14,23.26,0,40.7,17.89,40.67,41.75C601.14,171.45,584,188.46,559.73,188.48Z"/><path class="cls-1" d="M778.9,74.08c-25.69-9.21-55.13-3.82-71.73,17.62,0-5.34-.23-9.48.07-13.58.24-3.52-.48-4.93-4.49-4.79-9.81.34-19.65.22-29.48,0-3.1-.06-4.19.58-4.19,4q.15,96.69-.05,193.39c0,3.34,1.18,3.72,4,3.68,10-.15,20-.24,30,0,3.72.1,4.29-1.23,4.25-4.54-.18-13.32-.08-26.65-.09-40V203.64c11.37,13.33,25.3,19,41.29,19.92,31.57,1.8,55.87-10.25,70.33-38.92,7.79-15.43,9.81-32.26,7.34-49.42C821.94,106,807.42,84.29,778.9,74.08ZM747,188.51c-23.8-.24-40.69-17-40.71-40.9,0-24.71,17.07-42.22,41.31-42.16,26,.08,41.9,21.53,40.76,42.23C789.56,168.66,772.07,188.76,747,188.51Z"/></g></g></svg>