<?xml version="1.0" encoding="utf-8"?>
<!-- Generator: Adobe Illustrator 24.3.0, SVG Export Plug-In . SVG Version: 6.00 Build 0)  -->
<svg version="1.1" id="Layer_1" xmlns="http://www.w3.org/2000/svg" xmlns:xlink="http://www.w3.org/1999/xlink" x="0px" y="0px"
	 viewBox="0 0 981.3 350.4" style="enable-background:new 0 0 981.3 350.4;" xml:space="preserve">
<style type="text/css">
	.st0{fill:#131927;}
	.st1{fill:#CC785C;}
</style>
<g id="Layer_2_1_">
	<g id="Layer_1-2">
		<path class="st0" d="M0,130V8.9c0-5.5,2.5-8.6,7.7-8.6c41.1,0,82.3-0.9,123.4,0.4c27.9,0.8,50.7,14.5,68.1,36.1
			c29.9,37,30,88.7,0.1,125.3c-16.9,20.7-39.2,32.3-65.9,35.4c-11.1,1.3-22.1,0.4-33.2,0.6c-3,0.1-3.8,0.8-3.8,3.8
			c0.1,17.9,0,35.8,0.1,53.7c0,3.3-0.7,4.4-4.3,4.4c-27.9-0.1-55.9,0-83.8-0.1c-5.7,0-8.4-2.9-8.4-8.8C0,210.7,0,170.4,0,130L0,130z
			"/>
		<path class="st1" d="M221.6,140.4c-0.5,40.7,1.6,80.2-0.8,119.6c-2.8,45.7-38.2,82.6-82.9,89.4c-9.2,1.4-18.4,1-27.7,0.9
			c-4.5,0-6.5-2.7-6.5-8c0-26.1,0-52.2,0.1-78.3c0-18.1,0.1-36.1-0.2-54.2c-0.1-3.7,1.1-4.4,4.5-4.3c16.7,0.5,33.4,0.1,49.4-5.7
			c28.5-10.4,49.7-29,62.4-56.8C220.4,142.1,221,141.2,221.6,140.4z"/>
		<path class="st1" d="M957.3,175.2c13.2-0.6,24.4,9.7,25,22.9c0.6,13.2-9.7,24.4-22.9,25c-0.8,0-1.7,0-2.5,0
			c-13.7-0.2-24.5-11-24.4-24.3S943.5,175.1,957.3,175.2z"/>
		<path class="st0" d="M936.4,73.9c0-2-0.7-2.5-2.6-2.6c-13.6-0.3-26,3-36.3,12.2c-3.7,3.3-6,7.7-9.2,13.1c0-7.3-0.2-13.3,0.1-19.2
			c0.1-3.2-0.7-4.2-4-4.2c-10,0.2-20,0.3-30,0c-3.7-0.1-4.3,1.2-4.2,4.5c0.2,12.5,0.1,25,0.1,37.5c0,33.5,0.1,67-0.2,100.5
			c0,4.6,1.3,5.5,5.5,5.4c9.5-0.4,19-0.3,28.5-0.1c3.7,0.1,4.4-1.2,4.3-4.5c-0.2-11.2-0.2-22.3,0-33.5c0.2-14.3-1.1-28.7,0.9-42.9
			c1.8-12.5,8-21.9,20.1-26.9c7.6-3.2,15.5-3,23.5-2.9c1.8,0,3.5,0.6,3.5-2.5C936.2,96.6,936.3,85.2,936.4,73.9z"/>
		<path class="st0" d="M341.5,91.8c0-5.6-0.1-10.1,0-14.5c0.1-2.9-0.6-4-3.8-3.9c-10.3,0.2-20.7,0.2-31,0c-2.9,0-3.5,0.8-3.5,3.6
			c0.1,64.6,0.1,129.3,0,193.9c0,2.8,0.7,3.6,3.6,3.6c10.2-0.2,20.3-0.2,30.5,0c3.7,0.1,4.3-1.1,4.3-4.5c-0.1-20.8,0-41.6,0.2-62.5
			c0-0.9-1-2.3,0.9-3c10.7,12.4,24.7,18.1,40.7,19c30.7,1.7,54.8-9.5,69.1-37.4c10.9-21.3,11.9-44,4.7-66.8
			C439.5,62.6,367.6,56.5,341.5,91.8z M381.6,188.4c-20.3,0.2-41.4-14.3-40.8-41.9c0.5-23.8,17.6-41.2,41.4-41.1
			c23.5,0.1,40.9,18.5,40.7,43.1C422.9,171.4,405.2,188.5,381.6,188.4z"/>
		<path class="st0" d="M634.4,73.3c-9.8,0.3-19.7,0.3-29.5,0c-3.5-0.1-5.1,0.6-4.7,4.5c0.4,4.2,0.1,8.5,0.1,13.7
			C588.7,77.1,574,70.8,556.9,70c-23.4-1-43.6,6.3-58.8,24.7c-16.4,19.9-20.4,43.2-16.6,68c3,19.2,11.8,35.5,27.6,47.4
			c13.9,10.5,29.8,14,46.9,13.5c17.4-0.5,32.2-6.6,44.3-20.4c0,5.4,0.2,9.9-0.1,14.3c-0.2,2.9,1,3.6,3.7,3.6c9.3-0.1,18.7,0,28-0.1
			c7.4-0.1,6.7,1.5,6.8-7c0.1-12.1,0.1-24.3,0-36.5c0-33.1-0.1-66.3,0-99.4C638.9,74.7,638.5,73.2,634.4,73.3z M559.7,188.5
			c-21.9,0-41.4-16.4-40.6-40.9c0-24.3,17.5-42.1,41.4-42.1c23.3,0,40.7,17.9,40.7,41.8C601.1,171.4,584,188.5,559.7,188.5z"/>
		<path class="st0" d="M778.9,74.1c-25.7-9.2-55.1-3.8-71.7,17.6c0-5.3-0.2-9.5,0.1-13.6c0.2-3.5-0.5-4.9-4.5-4.8
			c-9.8,0.3-19.7,0.2-29.5,0c-3.1-0.1-4.2,0.6-4.2,4c0.1,64.5,0.1,128.9,0,193.4c0,3.3,1.2,3.7,4,3.7c10-0.1,20-0.2,30,0
			c3.7,0.1,4.3-1.2,4.2-4.5c-0.2-13.3-0.1-26.6-0.1-40v-26.2c11.4,13.3,25.3,19,41.3,19.9c31.6,1.8,55.9-10.2,70.3-38.9
			c7.8-15.4,9.8-32.3,7.3-49.4C821.9,106,807.4,84.3,778.9,74.1z M747,188.5c-23.8-0.2-40.7-17-40.7-40.9
			c0-24.7,17.1-42.2,41.3-42.2c26,0.1,41.9,21.5,40.8,42.2C789.6,168.7,772.1,188.8,747,188.5z"/>
	</g>
</g>
</svg>
