<svg xmlns="http://www.w3.org/2000/svg" viewBox="0 0 818.32 908.95"><defs><style>.cls-1{fill:#f9bec0;}</style></defs><g id="Layer_2" data-name="Layer 2"><g id="Layer_1-2" data-name="Layer 1"><path class="cls-1" d="M470,148.87c1.56-.88,4.49.27,4.61-2.64.07-1.78-1.61-1.09-2.65-1.18-1.82.11-3.94.08-4.34,2.33A1.55,1.55,0,0,0,470,148.87Z"/><path class="cls-1" d="M361,466.41c-2.89.7-5.79,1.32-8.66,2.1-1.06.29-2.44.81-2.12,2.25s1.6,1.47,2.85,1.31c2.9-.64,5.79-1.27,8.68-1.94,1.21-.27,2.37-.83,2-2.29A2.06,2.06,0,0,0,361,466.41Z"/><path class="cls-1" d="M479.85,445.78a1.86,1.86,0,0,0,2.12,1.67c3.39-.69,6.76-1.51,10.1-2.41a2,2,0,0,0,1.61-2.21c-.23-1.37-1.33-1.21-2.22-1.13-3.34.74-6.57,1.45-9.79,2.18C480.66,444.11,479.63,444.49,479.85,445.78Z"/><path class="cls-1" d="M374.7,107.47c1.74-.42,3.32-1.4,2.79-3.4s-2.45-1.32-3.83-1c-2.77.54-5.49,1.31-8.24,1.94l-96.49,22.16h0c1.14.81,2.2,0,3.28-.19s2.42-1,2.89.65-1,2.32-2.23,2.61c-3.18.73-6.37,1.37-9.52,2.21-.48.13-1.41-.31-1.26.82l99-22.58C365.66,109.61,370.19,108.57,374.7,107.47Z"/><path class="cls-1" d="M312.32,166.71a20.29,20.29,0,0,0,11.8-2.89c-5.38.44-4.74-2.89-4.57-5.92,0-.66,0-1.33,0-2,0-6.63,0-6.63-6.7-3.52.91,2.05,4-.5,3.9,2.32C316.65,159.07,319.05,164.37,312.32,166.71Z"/><path class="cls-1" d="M265.75,127.93l-4.84,1.14C262.61,129.09,264.41,129.46,265.75,127.93Z"/><path class="cls-1" d="M261.47,132.1a50.82,50.82,0,0,1,9-2.06c1.58-.3,3.09-.54,4.09-2.22-2-1-4.1,1.48-5.62-.7a3.24,3.24,0,0,0-3.18.81l1.14.71c-2,.61-3.83,2.51-6,.43a14.4,14.4,0,0,0-2.47.12L163.34,151q-55.86,12.83-111.73,25.68c-2,.47-5,.48-4.45,3.5.57,3.19,3.36,1.9,5.32,1.45q80.15-18.39,160.24-36.91c16.46-3.83,33.11-6.86,49.37-11.53C261.94,132.77,259.81,132.73,261.47,132.1Z"/><path class="cls-1" d="M145.9,453.22c3.08,0,1.2-4,2.07-6.48-1.27-1.8,1.5-5.91-1.66-6.05-3.94-.19-2,4.05-2.11,6.31S142.74,453.2,145.9,453.22Z"/><path class="cls-1" d="M319.54,145.68a1.38,1.38,0,0,0-1.71-1.33c-1,.23-1.2,1.07-1.2,1.93s.25,1.63,1.54,1.66A2.5,2.5,0,0,0,319.54,145.68Z"/><path class="cls-1" d="M450.6,153.12c3.06-.69,6.13-1.32,9.17-2.09,1-.24,1.86-.93,1.46-2.14a1.75,1.75,0,0,0-2-1.22c-3.22.62-6.44,1.3-9.6,2.15a2.36,2.36,0,0,0-1.33,1.84C448.42,152.79,449.45,153.18,450.6,153.12Z"/><path class="cls-1" d="M146.27,495.48c3,.06,1.11-4.39,1.94-7-1.17-2,1.43-6.37-1.88-6.51-3.51-.16-2.06,4.17-2,6.51C144.35,491,142.69,495.41,146.27,495.48Z"/><path class="cls-1" d="M146,474.43c3.43.05,1.11-4.26,2.14-6.75-1.29-2.09,1.63-6.6-2.16-6.72-3-.09-1.8,4.31-1.78,6.73S142.84,474.39,146,474.43Z"/><path class="cls-1" d="M336.24,384.75c-1,40.6,30.59,75.14,74.51,75.72,40.8.54,74.82-32.9,76.18-72.14,1.48-42.87-36.26-76.64-74.85-76.48C370.81,311.58,337.19,344.49,336.24,384.75Zm147.05.89c0,39.07-32,70.41-72.06,70.46-36.78.54-70.77-26.81-71.11-69.25-.35-42.74,35.67-71.81,73-71.08C450.21,316.49,483.26,348.76,483.29,385.64Z"/><path class="cls-1" d="M50.32,254l-1.71.77,9.69,21.42,1.81-.83Z"/><path class="cls-1" d="M103.54,248.49c-3.76-1.35-6.17,1.27-7.25,4.28-1.24,3.45-1.33,7.55,1.19,10.39,2.34,2.64,5.17.1,7.7-.9.11,0,.27.05.41.07.13,4.81-3,7.44-6.77,5.74-.71-.32-.86-2.24-2.15-.79a1.7,1.7,0,0,0-.29,1.34c.27,1.08,1.16,1.45,2.2,1.68,5.49,1.23,9.93-2.53,9.58-8.26-.3-5-1.07-10,.35-14.74C106.24,245.78,105.79,249.3,103.54,248.49Zm-2.4,13.34c-3.63-.16-3-3.67-3.12-6.19-.09-2.91,1-5.62,4.25-5.54,3.49.09,3,3.23,3.06,5.68C105.28,258.76,104.8,262,101.14,261.83Z"/><path class="cls-1" d="M106.53,330.13c-1.81.11-1.2,2.06-1.21,3.28,0,2.28.49,4.18-3.36,3.57-3.19-.51-5.29,2.24-6.17,5.41-1,3.49-1.14,6.9,1.6,9.76,1,1.05,2.42,1,3.75.8,5.19-.91,6.8-2.91,6.78-8.33,0-1.32,0-2.65,0-4h-.07c0-2.48.11-5,0-7.46C107.73,332.07,108.6,330,106.53,330.13ZM101,350.85c-3.85,0-3.21-3.52-3.17-6,0-2.89.67-6,4.32-6.07s3.12,3.08,3.3,5.55C104.92,347.18,105,350.85,101,350.85Z"/><path class="cls-1" d="M74.42,256.43c-2.82-3.07-5.55-.46-7.86.91-1.39-2,.49-4.72-2.38-6.9v21.71c1.54.59,1.9-1.62,3.62-1,4,1.48,6.39-1.12,7.62-4.38C76.73,263.33,77.22,259.48,74.42,256.43Zm-4.83,13.24c-3.25.33-3.47-2.83-3.54-5.19,0-3.57.6-7,4.59-7.18,2.75-.13,3.42,2.59,3.38,5.13C74,265.76,73.41,269.27,69.59,269.67Z"/><path class="cls-1" d="M87.75,294.76c.54,5.91.88,11.93-.51,17.95,11.05-1.88,11.36-2,11.68-5.68-1.19.8-2,2.08-3.43,1.93-1.73-.17-3.86,2.24-4.91.31-.92-1.69-.74-4.3-.28-6.33.51-2.27,3.06-1.95,4.62-1.7,4.48.71,1.13-2.36,1.72-3.57-.52.35-1,.73-1.55,1-1.31.73-2.84,1.67-4.2.91-1.54-.85-.72-2.71-.68-4.1.14-5.06,4.3-3.17,7-3.83.6-.15,1,1.71,1.8.35a3.07,3.07,0,0,0,0-1.94c-.3-1.28-1.19-.68-2-.51-2.09.48-4.2,1-6.3,1.4S87.46,291.73,87.75,294.76Z"/><path class="cls-1" d="M107,206.22c.26-5.19-1.69-5.89-4.61-5.48-4.85.69-7.89,5.12-7.32,10.64.4,3.82,2.64,5.86,6.29,5.44,3.25-.37,5.9-2,6.08-7.35-2.77,3.35-4.26,6.95-8.17,4.53-2.17-1.35-2.08-7.29,0-9.61C101.77,201.65,104.24,201.37,107,206.22Z"/><path class="cls-1" d="M87.12,342.73c2.26.32,2,2.33,2,3.94.06,2.32,0,4.65,0,7,0,.63,0,1.35,1,1.35s1.13-.61,1.13-1.28c0-3.48,0-7-.28-10.44-.15-1.81-1.65-3.37-3.37-2.89-2.72.75-7,1.79-7.48,3.52-1.08,4.28-.35,9-.35,13.92,3-1,2.19-2.94,2.33-4.44.25-2.61-.54-5.31.75-7.83C83.79,343.79,85.05,342.43,87.12,342.73Z"/><path class="cls-1" d="M86.55,204.27C82.2,204.15,79,208.36,79,214c-.2,3.38.82,6.36,5.18,6.57,4.53.21,8-4.11,8-9.55C92.11,207.18,90.73,204.39,86.55,204.27Zm-1.34,14.45c-3.41.44-3.84-2.71-3.86-5.19,0-3.3.81-6.75,4.69-7.16,3.25-.35,3.68,2.65,4,5.18C89.81,214.91,89,218.24,85.21,218.72Z"/><path class="cls-1" d="M113.3,200c0-.81-.08-1.82-1.28-1.51-.51.13-1.26.82-1.26,1.25,0,3.63.06,7.28.42,10.89.21,2.14,2.08,3.1,4,2.91,2.55-.24,4.48-2.46,7.43-2.38.84,0-.21-3.59.09-5.53a6.66,6.66,0,0,0,0-1h-.06a32.84,32.84,0,0,0,0-4c-.19-1.51.89-4.13-1.21-4.2-2.3-.08-1.28,2.54-1.37,4-.13,2.14.17,4.33-.09,6.45-.29,2.29-1.59,4.23-4.13,4.18s-2.31-2.44-2.43-4.16C113.21,204.67,113.34,202.34,113.3,200Z"/><path class="cls-1" d="M87.56,251.81c-4.17-.06-6.81,2.32-7.75,6.34-.88,3.75-1,7.74,3.24,9.33,3.82,1.43,6.94-.44,8.22-4.75a25.37,25.37,0,0,1-4.43,2.84,3.24,3.24,0,0,1-4.43-2.07c-1.07-2.68,1.36-2.49,2.71-3,1.07-.4,2.35-.25,3.39-.71,1.56-.68,4.63.14,4-3.11C91.94,254.13,90.45,251.86,87.56,251.81ZM83.84,259c-1.17.34-1.92-.28-1.4-1.62.82-2.12,2.12-3.77,4.65-3.65,1.79.09,2.37,1.49,2.87,3.28C88.34,258.68,85.9,258.37,83.84,259Z"/><path class="cls-1" d="M48.56,207.45l9.58,21,1.82-.86-9.57-21Z"/><path class="cls-1" d="M262.42,343.75c-.8-3.38-3.76-1.92-5.85-1.42Q164.16,364.64,71.76,387c-6.78,1.64-13.58,3.23-20.36,4.87-2.22.53-3.62,1.9-3.16,4.28.35,1.81,1.89,2.12,4.63,1.71.05,0,1.19-.23,2.32-.51q56.66-13.64,113.31-27.29,44.51-10.69,89-21.32C260.2,348.12,263.25,347.28,262.42,343.75Z"/><path class="cls-1" d="M178.23,384.79Q115.56,400,52.9,415.26a12.4,12.4,0,0,0-3.64,1.46,3,3,0,0,0-1.13,3.56,2.67,2.67,0,0,0,2.93,2c1.4-.27,2.72-.45,4-.77q62.18-15.24,124.34-30.46c2.8-.68,5.59-1.31,4.6-4.95C183.08,382.66,180.38,384.27,178.23,384.79Z"/><path class="cls-1" d="M269.29,211.69c1.54.48,1.73,1.82,1.73,3.22,0,2.49,0,5,0,7.47,0,.83-.05,1.78,1.11,1.78.37,0,1.06-.53,1.07-.82,0-4.12.66-8.31-.71-12.3a2.87,2.87,0,0,0-3.26-1.76c-2.56.33-4.21,3.32-7.18,2.45-.06,1.81-.12,3.62-.17,5.43,0,.5,0,1,0,1.5h-.05a31.08,31.08,0,0,0,0,4c.15,1.18-.9,3.24.79,3.37,2.46.2,1.24-2.15,1.37-3.37.34-3.22-.92-6.72,1.82-9.46C266.8,212.23,267.8,211.22,269.29,211.69Z"/><path class="cls-1" d="M294.87,158.52c1.05-.18,3,1.39,2.39-1.3-.39-1.79-2-1.74-3.16-.92-1.69,1.19-3,2.13-5.42,1.24-1.66-.61-2.53.85-1.87,2.27,2.18,4.67,2.44,9.2-1.66,13.73,3.88-.43,7.15-.82,10.42-2.54-1.91-2.05-3.79.5-5.07-1.2C288.45,167.09,291.49,159.11,294.87,158.52Z"/><path class="cls-1" d="M133.53,194c-2,.12-3.67,1.24-5.57,1.05s-1.82.84-1.79,2.12c.08,3.65.11,7.3.17,11,0,1-.07,2.17,1.37,2,1-.09,1.17-1,1.18-1.9,0-2.66,0-5.32,0-8,0-1.63-.22-3.88,2-3.83s1.23,2.26,1.36,3.59c.3,3-.48,6.09.65,9.12,2.37-.87,1.64-2.59,1.68-3.93.07-2.32-.14-4.65-.09-7,0-1.5.22-3.37,2.18-3.29s1.21,2,1.31,3.17c.28,3.18-.38,6.45.83,10.86,1.95-3.58,1.24-6.1,1.27-8.5C140.22,193.21,140.17,193.59,133.53,194Z"/><path class="cls-1" d="M69.18,353.18a19.29,19.29,0,0,1,2.89-.66c2.21-.54,5-.66,3.74-4.2-1-2.78-2.78-4.51-6-3.73-4.15,1-6,4.1-6.48,7.91-.43,3.22-.13,6.67,3.77,7.63,3.69.9,6.73-.37,8.85-5.57-2.46,1.67-3.66,2.78-5.07,3.37-2.1.89-4.09.38-4.77-2C65.31,353.24,67.86,353.74,69.18,353.18Zm-3-2.88c.58-2.24,1.87-3.92,4.34-3.89,1.59,0,2.69,1,2.75,3.17-1.36,1.91-3.84,1.58-5.89,2.17C66.36,352,65.89,351.28,66.15,350.3Z"/><path class="cls-1" d="M301.86,164.66c.48,1.79.36,3.88,2.54,4.34a5,5,0,0,0,5.92-2.63c-2.23-.64-5.26,2.44-6.15-1.77-1.1-5.21.24-8,5.1-10.07.26-.11.31-.73.69-1.73-3.34,1-6.3,1.53-6.73-3.36-1.49,2.36-1.14,5.4-4,6.18-.1,0-.13.85-.07.87C304.13,157.84,301.14,161.91,301.86,164.66Z"/><path class="cls-1" d="M68.1,208.44c-4.77,2-7.17,10.52-3.94,14.6s6.37-.68,9.56-.13c1.09.18,1.5-.44,1.49-1.39q0-9.44-.14-18.87c0-.85-.16-1.77-1.29-1.59s-.94,1.1-.93,1.94c0,2,0,3.95,0,5.94C71.15,209.44,70,207.63,68.1,208.44ZM73,215.1c.17,3.73-.69,7-4.16,7.31-3.15.31-3.52-2.91-3.51-5.43,0-3.07.59-6.5,4.25-6.76C72.64,210,73.37,212.77,73,215.1Z"/><path class="cls-1" d="M50.17,342.36c-1.76,2.87-.15,4.12.42,5.49,1.64,4,3.42,7.9,5.28,11.78.85,1.78,1.24,5.53,3,4.68,2.24-1.05-.49-3.67-1.21-5.42C55.51,353.5,52.9,348.28,50.17,342.36Z"/><path class="cls-1" d="M582.06,118.68c2.47,1.49,5.13.83,7.28-1.15,3.09-2.85,4.22-6.43,2.81-10.36-1-2.85-3.43-3.63-6.41-2,2-9.94,2-9.94-3.65-10.3,2.39,1.6,2.49,3,1.77,5-1.48,4-2.48,8.23-3.8,12.32C579.19,114.83,579.73,117.27,582.06,118.68ZM582,115c.65-3.58,1.52-7.39,5.32-8.87,2-.77,2.25,1.26,2.21,2.85.13,4.56-2.52,9.31-5.13,9.13A2.5,2.5,0,0,1,582,115Z"/><path class="cls-1" d="M756.12,318.2q-14.88-3.15-29.76-6.34Q657.24,297,588.1,282.22c-14.91-3.19-29.86-6.23-44.78-9.45-2.14-.46-3.78-.23-4.32,2a4.14,4.14,0,0,0,2.15,5.08,12.42,12.42,0,0,0,2.87.79q24.11,5.2,48.22,10.38Q658,305.07,723.72,319.11c10.72,2.3,21.43,4.67,31.41,6.85,3.07.24,4.82-.64,5.08-3C760.51,320.07,758.7,318.75,756.12,318.2Z"/><path class="cls-1" d="M320.26,618.31c1.28-.28,2.86-.41,2.46-2.34-.36-1.71-1.84-1-2.84-.94-3.73.15-4.53-1.3-3.59-4.91,1.7-6.49,4-11.78,12.11-11.49,1.75.06,3.52-.84,5.29-1.27,8.25-2,8.3-2,11.06,5.8,1.11,3.14,3.43,6.75-2.18,8.24-.37.1-.73,1.1-.71,1.66.05,1.21,1.08,1.08,1.85.92,6-1.32,12-2.69,18-4,1-.23,1.27-.92,1.26-1.81,0-1.14-.84-1.38-1.68-1.22-3.86.74-4.7-2-5.76-4.72q-8.43-21.75-17-43.46c-1.46-3.71-4.74-4.52-7.5-1.82-1,1-1.42,2.57-1.91,4q-8.62,23.85-17.14,47.73c-1.3,3.64-2.46,7.26-6,9.47a2,2,0,0,0-1,2.56c.44,1.07,1.36.6,3.53.25ZM330.89,567c3.1,8.39,5.7,15.55,8.42,22.67.72,1.9.2,2.77-1.71,3.17-5.29,1.12-10.57,2.31-16.72,3.67C324.25,586.61,327.34,577.49,330.89,567Z"/><path class="cls-1" d="M544.65,196.33c5-23.94,8.88-48.08,12.92-72.19,1.29-7.7,2.32-15.46,4.84-22.89.83-2.45,2.58-4.13,5.32-3.12,2.25.83,2.57,2.83,1.79,5-.58,1.59-1.22,3.21.52,4.5a2,2,0,0,0,2.34.06,4.55,4.55,0,0,0,2.08-4.73,8.78,8.78,0,0,0-6.84-7.72c-3.79-1-6.9.55-8.89,3.91-2.22,3.76-3.25,8-4.2,12.21-6.37,28.2-11.15,56.71-15.84,85.22-.62,3.77-1,7.64-2.67,11.1-1.16,2.37-3.18,4-6,3.49-3.15-.57-1-2.94-1.22-4.45-.29-2.17-1.49-3.54-3.45-3.56-2.33,0-2.82,1.87-2.73,3.91.16,4.07,2.95,6.34,8.45,6.38,3.74.36,6.79-1.66,9.1-5C542.62,204.75,543.76,200.58,544.65,196.33Z"/><path class="cls-1" d="M132,337.94c.81-.19,1.64-.32,2.42-.58,1.6-.51,3.95-.14,3.66-3-.24-2.34-1.16-4.37-3.56-4.87-4.33-.89-6.89,1.64-8.5,5.26-1.8,4-.71,9.09,2.38,10.09,3.87,1.26,7.12.21,8.33-4.49a16.56,16.56,0,0,1-2.45,2c-1.67.93-3.48,1.22-5.13-.06-.81-.63-1.52-1.65-1-2.61C128.83,338.16,130.56,338.27,132,337.94Zm-3.91-2.59a4.92,4.92,0,0,1,4.25-4.21,2.67,2.67,0,0,1,3.28,2.8c-.44,3.24-3.95,1.24-5.36,2.59C128.92,336.81,127.74,336.85,128.07,335.35Z"/><path class="cls-1" d="M631.5,409.92c-2.87.69-5.75,1.4-8.59,2.22a1.65,1.65,0,0,0-1.32,1.83c.23,1.21,1.22,1.39,2.27,1.33,2.73-.62,5.46-1.2,8.17-1.86,1-.25,1.9-.89,1.66-2.06A1.72,1.72,0,0,0,631.5,409.92Z"/><path class="cls-1" d="M766.4,197.33c-2.51,1.48-3.46,4.41-5.63,6.27-4.09-10.4-5.09-11.63-9.13-10.83-3.6.71-5.2,3-5.17,6.74,1.4-.33,1.49-1.47,2.07-2.22,2.15-2.8,4.1-2.55,5.48.61,3.36,7.74,1.94,14.67-4.52,21.23-.41-.79-.78-1.49-1.13-2.2-.87-1.74-2.27-2.75-4-1.46-1.92,1.46-1.76,3.7-.17,5.23,2.48,2.4,4.93,1.84,7.34-.61,2.13-2.17,2.58-5.58,5.62-7.55.58,2.49,1.11,4.57,1.54,6.67.78,3.75,2.47,7,6.8,6.32s6.14-4,6.94-9.56c-1.91,2.41-2.85,3.74-3.94,4.94s-2.4,1.79-3.82.28c-4.2-4.49-3.83-16.38.63-20.56,1.35-1.25,2.15-2.08,2.73.71.41,2,2.45,2.2,4,1.15,1.89-1.25,1.81-3.1.5-4.76C770.76,195.39,768.55,196.05,766.4,197.33Z"/><path class="cls-1" d="M313.28,645.79c-2,.49-3.3,1.77-3.09,3.92.17,1.75,1.4,2.55,3.94,2.33,3.79-.94,8.3-2.08,12.83-3.18q120.29-29.37,240.58-58.68c2.86-.7,5.55-1.57,4.82-5-.77-3.64-3.7-2.3-6.1-1.71q-48.84,12-97.69,24-67,16.5-134,33.06C327.5,642.31,320.38,644,313.28,645.79Z"/><path class="cls-1" d="M589.29,190.14c-1.42,2-.66,3.83.42,5.56,1.35,2.14,3.52,2.93,5.93,3.13,5,.43,9.35-2.45,11.74-8.25a66.65,66.65,0,0,0,4.33-17.81c.52-4.33,2.14-6.07,6.55-4.62,1,.33,2.81,1.5,3.23-.69s-1.76-1.3-2.73-1.89c-1.61-1-5.21.09-4.88-2.25.69-5,.81-10.37,4.36-14.56,1-1.17,2.35-2,4-1.3s.93,1.83.55,3c-.58,1.75.31,2.92,1.81,3.59,1.06.47,2.29.71,3.23-.34,1.33-1.47,1-3.07.14-4.61-2.43-4.56-9.07-5.22-13.38-1.27-3.07,2.82-4.37,6.62-5.17,10.55-.65,3.14-1.34,5.79-5.53,4.55-.89-.27-2.2-.21-2.23,1.19s1.41,1,2.24,1.25c1.65.6,4.28,0,3.45,3.38-1.72,7.09-3.16,14.26-4.85,21.36-.59,2.44-1.75,4.74-4.13,6s-4,.78-4.33-1.73c.8-2.57.33-4.22-1.65-5.12A2.39,2.39,0,0,0,589.29,190.14Z"/><path class="cls-1" d="M818.31,261.55h0q0-69.21,0-138.43c0-8.39-3.71-13.2-11.17-14.85q-67.8-15-135.61-29.92c-41.24-9-82.52-17.88-123.77-26.86-18.45-4-36.86-8.2-55.3-12.25-9.75-2.14-15.56,2.2-15.56,11.81q-.08,135.69-.05,271.37c0,10.53,4.18,15.55,14.31,17.86Q581.85,361,672.58,381.63C716,391.58,759.4,401.7,802.81,411.7c10.09,2.33,15.51-2,15.51-12.21Q818.29,330.52,818.31,261.55Zm-4.1,137.28c0,8.51-2.9,10.62-11.21,8.7q-73.15-16.93-146.32-33.78l-162.4-37.46c-1.61-.37-3.25-.67-4.86-1-6.47-1.47-8.49-4-8.52-10.79q0-12,0-24,0-122.73,0-245.45c0-12.67,1.35-13.6,13.59-10.92q78,17.07,156.07,34Q727.77,95,805,112c6.8,1.49,9.25,4.41,9.25,11.4q0,69.23,0,138.47Q814.22,330.34,814.21,398.83Z"/><path class="cls-1" d="M627.67,320.8c-27.42-6-54.84-12-82.23-18.15-2.9-.66-5.6-1.16-6.43,2.3-.87,3.61,1.68,4.74,4.86,5.41,16.72,3.49,33.41,7.12,50.1,10.75,11.68,2.53,23.35,5.12,35,7.69a3.54,3.54,0,0,0,3.77-1.9c.88-1.56.22-2.87-.68-4.15C631,321.19,629.29,321.16,627.67,320.8Z"/><path class="cls-1" d="M714.57,214.35c4.8,3.87,9.19,1.78,13.59-1.54-.1,4,1.46,6.22,5.25,6.05,3.59-.16,6-3.6,5.66-8.33-.61,1-1,1.67-1.4,2.29-1.06,1.51-1.48,4.44-3.94,3.51s-.61-3.3-.3-4.88c2.37-12,4.9-24,7.39-36,.23-1.1,1.21-2.76,0-3.18-3.2-1.15-6.58-2.13-10.43-.84,5.1,1.22,5.34,4.2,4.19,8.19-1.06,3.66-1.59,7.46-2.55,12.19-2.59-3.7-5.31-5.52-8.84-5.52-4.82,0-9.79,4.34-11.83,10.07C708.86,203.42,710.12,210.77,714.57,214.35ZM720,191.62c1.57-2.09,3.78-3.63,6.5-2.47,3.86,1.65,4,5.34,4.29,8.62-.79,4.49-1.18,8.87-3.68,12.56-1.54,2.28-3.58,4.16-6.63,3.46s-4.47-3-4.85-5.75A21.64,21.64,0,0,1,720,191.62Z"/><path class="cls-1" d="M653.23,382.38c-3.4,0-1,4.3-2.15,6.85,1.58,1.72-1.69,6.06,2.35,6,3,0,1.5-4.07,1.62-6.27C655.19,386.61,656.44,382.37,653.23,382.38Z"/><path class="cls-1" d="M652.32,401.93c-1.29,5.46-5.94,4.77-9.65,5.89-1,.29-2,.91-1.8,2,.23,1.45,1.54,1.47,3.37,1.4a42.06,42.06,0,0,0,7-1.86,5.07,5.07,0,0,0,3.07-6.48C654,402.07,652.6,400.71,652.32,401.93Z"/><path class="cls-1" d="M643,211.35c-11.85-22.69-10.32-43.21,6.34-62.13C628.5,157.43,624.21,195.48,643,211.35Z"/><path class="cls-1" d="M648.56,198.5a3.19,3.19,0,0,0,3,2.85c2,.24,3.44-.89,4.88-2.07,2.13-1.77,3.32-4.34,5-6.64,2.9,4.27.67,12.34,8.87,11.25,4.39-.59,5.81-4.43,5.86-8.56a33.41,33.41,0,0,0-3.71,4.48c-1.09,1.33-2.45,1.66-3.78.12-3.59-4.18-2.16-17.05,2.21-20.26,1.39-1,2-.6,2.46.89.45,1.66,1.66,2,3.1,1.53a2.88,2.88,0,0,0,2-3.14,3,3,0,0,0-2.68-3.09,5.58,5.58,0,0,0-5.67,2.36c-1.52,1.88-2.85,3.9-4.4,6.06-2.94-10.65-4.38-12.57-8.88-11.43-3.87,1-5.48,3.71-5,8,2-.73,1.84-2.58,2.75-3.64,1.7-2,3.33-2.18,4.67.29,2.8,5.15,1.65,13.9-2.21,18.36-1.35,1.55-2.3,2.32-3.51-.14-.74-1.5-2.18-1.31-3.46-.62A3,3,0,0,0,648.56,198.5Z"/><path class="cls-1" d="M566.46,202.58c.26-2,2.95-4.29-2.63-4.38-7.66-.12-12.62,3.23-11.59,10.76.56,4.1,3.16,5.62,7,4.15,1-.38,1.71-2,3.26-.2,2.5,2.94,4.45.88,6.82-1.72-2.19-.17-2.93,2.12-4.26,1-1-.82-.21-2.18,0-3.29C565.55,206.77,566.16,204.7,566.46,202.58Zm-3.11.11c-.27,4.73-3.25,9.54-5.9,9.27-2.17-.23-2.34-2-2.42-3.15.08-5.15,3-10.11,5.61-9.95C563.05,199,563.47,200.64,563.35,202.69Z"/><path class="cls-1" d="M697.2,197.67c3.49-14.78-.49-30.27-10-37.63,10.74,21.43,9,41-6.82,58.64C687.68,217.25,694.57,208.76,697.2,197.67Z"/><path class="cls-1" d="M539.72,248.64a3.88,3.88,0,0,0,1,5,7.5,7.5,0,0,0,3.66,1.4q78.17,16.85,156.32,33.74c10.07,2.17,20.17,4.21,30,6.25,1.7.18,3-.1,3.58-1.57a4.08,4.08,0,0,0-.23-3.84c-1.31-2-3.6-2.19-5.69-2.64q-72.45-15.65-144.9-31.25-19.49-4.22-39-8.45C542.62,246.83,540.73,246.61,539.72,248.64Z"/><path class="cls-1" d="M535.43,681.62a1.87,1.87,0,0,0,2.3-1.3c.18-2.59-4,.47-3.64-2.89C533.18,679.57,533.42,681.07,535.43,681.62Z"/><path class="cls-1" d="M327,389.79c2-.52,4.39-1.15,3.43-3.77s-2.93-.21-4.14.11Q225,412.68,123.77,439.5,75.41,452.28,27.05,465c-7.5,2-8.86.68-8.86-7q0-85.72-.05-171.46,0-89.73.06-179.45c0-7.29,2.43-10.63,8.58-12.12q92.34-22.28,184.66-44.55Q306.11,27.59,400.78,4.92c9-2.15,11.19-.35,11.19,8.86q0,136.73-.07,273.43c0,2.33.09,4.67.14,7,0,1.18.57,1.83,1.82,1.83a1.59,1.59,0,0,0,1.81-1.8c0-2.33.1-4.67.1-7V61.3c0-16.33,0-32.66,0-49,0-7.53-3.43-12-9.62-12.24A40.65,40.65,0,0,0,395.7.69Q313.46,19,231.19,37.2c-42.77,9.41-85.59,18.57-128.38,27.86Q58,74.79,13.16,84.61c-8.91,2-12.88,7-13,16.16,0,2,0,4,0,6q0,85,0,170h0q0,46.49,0,93,0,41-.08,82c0,5.09.69,10.15,5.21,12.81,6.6,3.88,13.73,6.59,21.78,4.41,15.69-4.23,31.41-8.33,47.12-12.47l195.5-51.54ZM14.81,187q-.06,135.45-.16,270.89v6.42C5.7,462.7,4,460.65,4,451.19q0-172.68,0-345.36c0-2.16.14-4.32.15-6.48,0-6,3.08-10.12,9-11.4q80.64-17.48,161.3-34.88c17.49-3.79,35-7.7,52.43-11.54,1.28-.28,2.61-.38,3.92-.57h0l2,.85c0-.78-.21-1.11-.5-1.21l-1.47.36a2.4,2.4,0,0,1,1.47-.36c14.58-3.51,29.14-7.11,43.74-10.49,13.88-3.21,27.81-6.16,41.71-9.23h0c7.61-3.27,15.81-4,23.85-5.5a113.39,113.39,0,0,1-23,6.43l-85.8,20Q177.89,55.13,123,68.43,75.68,79.83,28.34,91c-10.84,2.54-13.62,5.92-13.57,17C14.89,134.33,14.83,160.65,14.81,187Z"/><path class="cls-1" d="M601.48,495.32c-13-10.69-25.74-21.61-38.45-32.6-3.1-2.69-6.08-3.27-10-2.28q-83.65,20.94-167.37,41.64-60,14.91-120,29.94c-10.64,2.67-13.13,6.14-13.13,17.32v170.9h-.06v41.48q0,66.21,0,132.42c0,4.75.92,9.16,5.53,11.41,6.21,3.05,12.52,4.43,19.72,2.54,53.65-14.07,107.38-27.86,161.08-41.75q77.52-20,155-40.08c11.05-2.85,14-6.46,14-17.76q0-90,0-179.9c0-39.81-.06-79.62,0-119.43C607.84,503.42,606,499.05,601.48,495.32Zm-42.65-30.68,42.39,36.06c-5.9,1.53-11.05,2.89-16.22,4.18-7.55,1.9-15.11,3.72-22.66,5.63-2,.51-3.55.86-3.53-2.13C558.87,494.3,558.83,480.22,558.83,464.64ZM603.24,679q0,65.47,0,131c0,7.79-1.25,9.3-9,11.29q-91.09,23.55-182.2,47.14L277.84,903.14c-1.45.37-2.94.61-4.35,1.09-3.61,1.22-5-.36-5-3.81-.08-8.33-.26-16.66-.27-25q0-77.73,0-155.46h-.1q0-89-.08-178c0-4.65,1.53-6.72,6.11-7.85q109.56-27.15,219-54.59,28.3-7.08,56.55-14.33c4.09-1.06,5.81-.71,5.66,4.35-.38,13.15-.12,26.32-.07,39.48,0,5.83,1.67,7,7.39,5.58,11.74-3,23.55-5.68,35.18-9,4.83-1.39,5.46,0,5.45,4.41Q603.14,594.54,603.24,679Z"/><path class="cls-1" d="M318.6,21.81c.34-.88.13-1.25-.85-.93h0C318,21.19,318.32,21.5,318.6,21.81Z"/><path class="cls-1" d="M560.68,653.55c-34.2,8.45-68.39,17-102.64,25.25-4.18,1-5.68,2.76-5.63,7.1.21,18,.09,36,.09,54h-.05q0,27.5,0,55c0,5.36.81,6,5.85,4.74q52.1-13.35,104.19-26.71c3.63-.92,5.2-2.59,5.19-6.53-.14-35.82-.1-71.64-.15-107.46C567.53,653,566.3,652.16,560.68,653.55Zm4.06,110.57c0,3.83-.93,5.43-4.79,6.38q-50,12.36-99.9,25.17c-3.55.91-4.77.72-4.71-3.5.25-17.49.11-35,.11-52.47h-.09c0-17.5.08-35-.07-52.48,0-3.21.85-4.63,4.09-5.43,32.88-8.14,65.71-16.52,98.59-24.68,7.89-2,6.71-2.13,6.71,5.06C564.7,696.15,564.59,730.14,564.74,764.12Z"/><path class="cls-1" d="M569,606.57c-8.07,1.94-16.14,3.83-24.19,5.83q-86.58,21.5-173.16,43c-12.27,3.05-24.55,6-36.83,9-2.53.62-5.33,1.4-4.5,4.69.94,3.68,4,2,6.23,1.49,4.19-1,8.3-2.35,12.49-3.38Q457.69,640.6,566.37,614a17.33,17.33,0,0,0,4.62-1.71,3.06,3.06,0,0,0,1.29-3.93C571.72,606.94,570.48,606.48,569,606.57Z"/><path class="cls-1" d="M193.55,506.51c-2.68.79-5.42,1.36-8.12,2.08-1.12.3-2.45.76-2.11,2.21s1.69,1.32,3,1.26c2.64-.57,5.42-1,8.1-1.81,1.12-.33,2.81-.93,2.07-2.7C196,506.4,194.9,506.12,193.55,506.51Z"/><path class="cls-1" d="M235.66,496.62c-3.19.74-6.39,1.51-9.56,2.35-1,.27-1.82,1-1.45,2.16s1.52,1,3.13.92c2.43-.57,5.48-1.22,8.5-2a1.94,1.94,0,0,0,1.64-2.15C237.71,496.69,236.73,496.37,235.66,496.62Z"/><path class="cls-1" d="M173.63,511.1c-2.88.69-5.77,1.38-8.61,2.24a1.89,1.89,0,0,0-1.46,2.26c.33,1.12,1.3,1.42,2.69,1.17,2.6-.63,5.51-1.25,8.36-2.09a1.82,1.82,0,0,0,1.4-2.29A1.88,1.88,0,0,0,173.63,511.1Z"/><path class="cls-1" d="M384.23,807.17a18.69,18.69,0,0,0-1.92.5l-70.93,18.1a16.93,16.93,0,0,0-2.83.89,3.27,3.27,0,0,0-1.83,4.16c.45,1.81,1.93,2.07,3.82,2,.67-.19,1.62-.49,2.58-.73q28-7.1,56-14.17c5.47-1.39,10.91-2.92,16.38-4.32,2.58-.66,5.13-1.55,4.45-4.8C389.19,805.31,386.39,806.87,384.23,807.17Z"/><path class="cls-1" d="M215.66,501.83a25.56,25.56,0,0,0-11.06,2.33,1.57,1.57,0,0,0-.7,2.15,1.76,1.76,0,0,0,2.12.87c3.07-.72,6.13-1.47,9.17-2.29a2.15,2.15,0,0,0,1.61-1.67C216.82,502.39,216.38,501.84,215.66,501.83Z"/><path class="cls-1" d="M412,719.59Q363,731.68,314.14,743.86a37.34,37.34,0,0,0-5.7,1.69c-1.78.75-2.18,2.45-1.73,4.23s1.92,2.09,3.37,2c8.05-2,15.94-4,23.84-6l79.37-19.95c2.67-.67,5-2.07,4.39-5C416.89,717.18,414,719.08,412,719.59Z"/><path class="cls-1" d="M419,690.76c-.79.26-1.62.36-2.43.55q-47.19,11.41-94.37,22.83c-4,1-8.09,1.92-12.07,3.12a4.13,4.13,0,0,0-3.25,4.47c.19,1.86,1.69,2.27,3.57,2.29l2.66-.66q45-11,90-22c5.8-1.42,11.58-2.92,17.37-4.38,2.24-.56,3.69-1.94,3.21-4.26C423.16,690.11,421.14,690.06,419,690.76Z"/><path class="cls-1" d="M409.14,774c-3.87.88-7.69,2-11.54,3Q355,787.85,312.3,798.7c-2.76.7-5.69,1.69-4.78,5,1,3.64,4.14,1.64,6.34,1.09,12.88-3.21,25.73-6.59,38.6-9.84q28.21-7.11,56.45-14.14c2.49-.62,4.86-1.29,5.29-4.16C413.58,773.39,411.32,773.5,409.14,774Z"/><path class="cls-1" d="M310.66,777.85c.52-.14,1.47-.43,2.43-.67,8.54-2.12,17.08-4.18,25.61-6.34,23.65-6,47.28-12,70.93-18,2.52-.63,4.78-1.51,4-4.49s-3.44-1.72-5.48-1.51a11,11,0,0,0-1.45.37l-88.78,22.22c-3.05.76-6.13,1.45-9.12,2.39-1.83.58-2.48,2.18-2.08,4S308.6,778,310.66,777.85Z"/><path class="cls-1" d="M553.12,704.58c-.71.87-1.17,2.79-3,1.39-4.35-3.36-7.55-.69-10.37,2.25-3.09,3.24-5.81,6.84-8.69,10.29-4.55,5.45-8,6-13.7,2-2-1.42-4-3-6.16-4.24-3.72-2.23-7-1.55-9.68,1.85-1.12,1.44-2,3.08-3,4.59-.72,1-1.15,2.12-3.08,1.39-8.5-3.22-10.3-2.52-15,5.36-3.11,5.18-6.13,10.41-9.19,15.62l-1.27-.25V689.11c-2.09.73-2.26,1.35-2.26,2q0,41-.07,82c0,3.55,1.74,3.6,4.51,2.9,24.63-6.16,49.28-12.22,73.91-18.38,1.25-.32,3.67-.22,3.18-2.26-.54-2.3-2.59-.64-3.75-.37-12.75,3-25.47,6.21-38.18,9.39-11.11,2.78-22.19,5.67-33.32,8.33-1.07.25-3.77,2.2-3.63-1.05.41-9.83-3-20.17,5-29,3.83-4.23,6-9.92,9.29-14.69,1.77-2.58,4.56-5.44,7.89-3,4.56,3.41,6.52,1.52,8.74-2.55,3.17-5.79,5.77-6.19,11.22-2.43.68.48,1.32,1,2,1.51,8.32,6,13,5.47,19.62-2.43,2.77-3.31,4.87-7.16,8.22-10,2.3-2,4.63-3.47,7.45-.92,1.29,1.17,2.52,1,3.32-.37,1.92-3.32,4.48-6.33,5.91-11.08C555.7,699.27,555,702.34,553.12,704.58Z"/><path class="cls-1" d="M335.58,692.21Q401.27,675.92,467,659.73c1.77-.44,3.59-.75,4.85-2.29a3.1,3.1,0,0,0,.61-3.25c-.48-1.2-1.48-1.75-4.06-1.34l-2.65.65q-38.24,9.27-76.48,18.54c-18.35,4.49-36.67,9.14-55,13.69-2.71.67-4.93,2-4.09,5.06C330.94,693.57,333.34,692.77,335.58,692.21Z"/><path class="cls-1" d="M522,683.21c-2,3-4.45,1.13-7,.72C518,688,519.27,687.91,522,683.21Z"/><path class="cls-1" d="M502,687.8c-.87,1.58-2,2.85-.63,5.28C503.09,691.17,504.05,689.8,502,687.8Z"/><path class="cls-1" d="M153.7,516c-6.26,2-5.79-2-5.8-6.11,0-2.48,1.8-6.93-1.76-7-3.37-.08-1,4.38-1.78,6.34,0,1.84-.11,3.34,0,4.82.47,5.19,5,7.71,9.72,5.39.84-.41,2-.82,1.83-2A1.66,1.66,0,0,0,153.7,516Z"/><path class="cls-1" d="M431.12,157.24c2.39-.57,5.3-1.2,8.17-2,1.09-.29,2.37-.8,1.85-2.32-.39-1.14-1.5-1.17-2.53-.95q-4.37,1-8.73,2c-1,.23-2.09.67-2,1.84C428.06,157.4,429.41,157.3,431.12,157.24Z"/><path class="cls-1" d="M215.09,317.34c.47,3.06,1.33,6.34,5.69,6.45,4.15.09,7.81-4.38,7.75-9.41-.05-3.69-1.41-6.68-5.58-6.91C219.05,307.25,215.07,312.26,215.09,317.34Zm10.85-2.59c0,3.66-1,6.65-4.57,6.91-3.28.24-3.67-2.73-3.65-5.28,0-3.37,1.05-6.76,4.82-6.88C225.57,309.41,225.83,312.59,225.94,314.75Z"/><path class="cls-1" d="M207.05,261.8c2.35,2,.29,4.55-1.28,6.49-1.44,1.78-3,3.44-4.53,5.15,2.92-1,6.6.79,9-2.38-1.95-1.3-3.21,2-5.08.05,2.67-2.72,6.07-5.2,4.59-9.67-.62-1.88-2.49-2.05-4.2-1.69-2.51.53-4.54,1.64-4.78,5.78C203.09,263.1,204.17,259.37,207.05,261.8Z"/><path class="cls-1" d="M202.16,327.1c6.78-.24,8.47-.71,12.7-4-6.81,2.74-5.73-1.17-5.78-4.09,0-2.48,0-5,0-8-2.29,1-4.39.61-6.45,2.57,3.87.54,4.19.55,4.13,1.76C206.56,319.69,208.9,325,202.16,327.1Z"/><path class="cls-1" d="M211.15,223c-3.6-.27-6.1,1.6-6.63,5.1,2,.18,2.2-2.33,3.89-2.68,1.54-.33,3-.66,3.75,1.24s-.71,2.09-2,2.5a17.6,17.6,0,0,0-3.65,1.56c-2.8,1.67-4.25,4.34-2.37,7.12s4.54,1.58,7.87-.93c-3,0-5.16,1.46-6-1-.65-1.91.57-3.12,2.15-4,1.19-.65,2.53-1.39,3.75-.66s.38,2.16,0,3.13c-.57,1.44,0,2,1.19,2.53.75.32,1.39.92,2.25.3,1.52-1.08,0-1.91-.13-2.91a39.2,39.2,0,0,1-.26-5.94C214.93,225.63,214.59,223.26,211.15,223Z"/><path class="cls-1" d="M233.92,172.16c1.48-1.13,3-1.4,4.56-.2.8.61,1.7,1.5,2.11-.21.25-1.05.44-2.19-1.39-2.53-3.68-.67-8.85,2.05-9,5.28-.25,4.55,3.29,3.57,6,3.75,1.16.08,2.48.07,2.75,1.55s-.63,2.51-1.94,3.12c-1.56.72-3.12,1.25-4.56-.31-.6-.66-1.34-1.11-1.94,0a1.91,1.91,0,0,0,.48,2.27c.77.88,1.84.5,2.89.6,3.72-.13,7.17-1.23,7.51-5.56.36-4.6-3.44-3.9-6.35-4-.85,0-1.73-.13-2-1.09A2.28,2.28,0,0,1,233.92,172.16Z"/><path class="cls-1" d="M251.06,179.75c-1.37.56-2.82,1.09-4.16-.21-.83-.79-1.78-1.14-2.25.28a1.68,1.68,0,0,0,1.23,2.33,8.23,8.23,0,0,0,7.52-1.55,5.37,5.37,0,0,0,2-5.34c-.64-3-3.16-2.32-5.25-2.42-1.47-.07-3.42.08-3.15-2.1.23-1.86,1.91-2.77,3.73-2.54,1.22.15,2.37.92,3.92,1.57.08-2.1.89-3.81-2.1-3.72-3.9.11-7.2,1.12-7.83,5.28-.69,4.56,3.19,3.59,5.8,4,1.15.16,2.48.24,2.5,1.82A2.83,2.83,0,0,1,251.06,179.75Z"/><path class="cls-1" d="M242.28,318.42c1.48.08,1.5-1.44,1.48-2.63,0-2.66,0-5.33-.15-8-.12-2.1-.75-4.09-3.28-4.31-3.25-.27-5.26,3.19-8.53,3,.56,4.63-.52,9.41,1,14.67a4.46,4.46,0,0,0,1.36-3.58c.24-3.11-.66-6.38,1.06-9.3.88-1.49,2.07-2.73,4-2.33s1.66,2.2,1.71,3.63c.08,2,0,4,.06,6C241.08,316.71,240.76,318.33,242.28,318.42Z"/><path class="cls-1" d="M238.91,224c0-1.5-.06-3,0-4.49.1-2-.25-3.34-2.75-2.32-1.18.49-2.46.76-5.15,1.57,5.22.9,5.56.9,5.54,2.18-.07,4.41,2.38,9.81-4.69,11.9,4.27-.23,8-.57,12.13-2.61C238.9,229.17,238.9,229.17,238.91,224Z"/><path class="cls-1" d="M201.6,193.13c4.06-1.39,8-1.06,12.75-4.32-6.48,1.16-6.39-2-6.19-5.41.17-2.8,0-5.62.06-8.44,0-6.27-.06-6.33-6.32-3,.95,1.69,3.84-.87,3.95,1.5.24,4.95,0,9.93.14,14.89C206.06,191.39,202,189.6,201.6,193.13Z"/><path class="cls-1" d="M257.08,306.1c-3.71-.79-4.28-2.92-4.21-5.66.09-3-.58-5.68-4.83-5.31,5.47,8.85,4.48,17.34.18,26.13,3.69-1.05,4.92-3.53,4.7-6.79S253.31,308.29,257.08,306.1Z"/><path class="cls-1" d="M143,340.46c2.48,3.09,5.29.79,7.75-.31,1.49,2-.69,4.79,2.37,6.78,1-5.7.2-11,.51-16.16.21-3.43.42-6-4.62-5.26-3.56.54-6.05,1.75-7.21,5C140.54,334,140.61,337.54,143,340.46Zm.49-5.78c.11-3.18.67-6.84,4.59-7.05,3.44-.19,3,3.14,3.13,5.56.16,3.2-.31,6.36-4.2,6.5C144.1,339.79,143.35,337.08,143.44,334.68Z"/><path class="cls-1" d="M524.67,437.84c2.9-.7,5.83-1.32,8.69-2.15a1.65,1.65,0,0,0,1.25-2.29,1.77,1.77,0,0,0-2-1.19c-3.06.68-6.12,1.39-9.14,2.25-.88.25-1.87.94-1.3,2.21A2,2,0,0,0,524.67,437.84Z"/><path class="cls-1" d="M544.2,433.38c2.88-.69,5.78-1.31,8.62-2.11,1.09-.31,2.24-1,1.7-2.5-.4-1.11-1.49-1.19-2.49-1-2.89.66-5.78,1.31-8.63,2.1-.9.25-2,.78-1.81,2C541.81,433.31,542.93,433.57,544.2,433.38Z"/><path class="cls-1" d="M221.39,179.19c-2.07.58-4.14,1.22-5.57,3.05a4.7,4.7,0,0,0-.62,5.13,3.06,3.06,0,0,0,3.33,1.69c2.8-.27,5.05-2.68,8.14-2,.5.11,1.25-1,.76-1.49-2.4-2.21-.93-5-1.22-7.46s-.08-5.06-3.25-5.19c-3.32-.14-6.49.61-7.49,5.22,2.51-.19,2.35-2.54,3.92-2.9s3.46-1.13,4.29,1C224.41,178.06,223,178.73,221.39,179.19Zm2.35,3.47c-.54,1.89-1.5,3.93-4.18,4.36-1.61.25-2.69-.59-2.45-2.2.42-2.72,2.66-3.44,5-4C223.34,180.57,224,180.82,223.74,182.66Z"/><path class="cls-1" d="M504.73,442.17c2.39-.46,5-.85,7.49-1.48,1.24-.31,2.72-1,2.5-2.57-.27-1.85-1.87-1.48-3.14-1.22-2.56.51-5.11,1.09-7.65,1.7-1.29.31-2.78.73-2.28,2.49C502,442.46,503.4,442.29,504.73,442.17Z"/><path class="cls-1" d="M227.94,221.16c.73,0,1.14-.59.48-1.78-3.1,1.46-5.59.92-5.94-4.85-1.62,4.19-2.22,7-5.25,8.55,6.58-.05,3,4.43,3.57,6.81.49,2-.21,4.62,2.56,5.26,2.47.56,4.88.14,6.67-3.17-6.41,1.87-6.5,1.64-6.89-4C222.88,224.13,223.5,221.46,227.94,221.16Z"/><path class="cls-1" d="M259.13,492.63a1.75,1.75,0,0,0-2.24-1.39c-3,.72-6.09,1.4-9.09,2.25-1.08.3-2.22,1-1.8,2.48.33,1.18,1.44,1.16,3,1.09,2.52-.66,5.55-1.42,8.55-2.29C258.5,494.49,259.4,493.78,259.13,492.63Z"/><path class="cls-1" d="M253.26,213.1c-4.1-.38-8.11,4.25-8,9.18.11,3.46.79,6.82,5.37,6.94,4.3.11,7.48-3.61,7.57-8.8C258.15,216.91,257.67,213.5,253.26,213.1Zm-1.82,14c-3.35.28-3.77-2.57-3.71-5.21.07-3.18.91-6.31,4.55-6.64,3.44-.32,3.53,2.7,3.74,5.11C255.86,223.62,255.12,226.74,251.44,227.05Z"/><path class="cls-1" d="M339.53,160.72c4.12-.48,7.77-.81,11.89-3.69-6.88,2.73-5.5-1.64-5.52-4.65s.11-6.29,0-9.43c0-1.54.9-3.9-.79-4.39a5.37,5.37,0,0,0-5.42,1.67c7.07,1.38,3.55,6.58,4,10C344.14,154.06,345.28,158.65,339.53,160.72Z"/><path class="cls-1" d="M358.71,149.88a14.3,14.3,0,0,1,1.92-.51c2.32-.39,4.95-.5,3.69-4.09-1.07-3.06-3-4.72-6.42-3.6-4.4,1.43-6.93,6.58-5.6,11.28.76,2.69,2.29,4.38,5.24,4.33,3.21-.06,5.55-1.27,6.68-5.8a30.31,30.31,0,0,1-3.23,2.85c-1.62,1-3.4,1.39-5.11.19a2.58,2.58,0,0,1-1.2-2.58C355.17,149.77,357.25,150.34,358.71,149.88Zm-3.94-2.47a5.24,5.24,0,0,1,4.19-4.2c1.73.13,3.27,1.16,3,2.63-.59,3-3.67,1.72-5.57,2.56C355.44,148.81,354.57,148.42,354.77,147.41Z"/><path class="cls-1" d="M48.37,151.54c.29.37.59.74.88,1.12,7.2-1.7,14.4-3.42,21.61-5.09A2.94,2.94,0,0,0,73.33,145a23.35,23.35,0,0,0,.47-8.88c-1.64,6.47-4.94,10.72-11.94,11.44-2.81.28-3.63-.41-3.63-3,0-6-.16-12-.1-18,0-4.63-1.6-9.81,4.07-13-4.81.62-9.18,1.27-13.53,3.62,4.32.36,4.32,3,4.26,6.06-.14,6.32,0,12.64,0,19C53,146,53.54,149.92,48.37,151.54Z"/><path class="cls-1" d="M371.65,155.63a5.64,5.64,0,0,0,.39-1.95c.41-3.25.2-6.7,3-9.19-3.65-2.34-1.76-6.84-3.82-9.78-.92-1.3-1.87-2.73-4-2,5.36,6.34,5.07,19,0,26.31C370.08,159,370.8,157.19,371.65,155.63Z"/><path class="cls-1" d="M330.05,163.29c3.86.27,6.57-1.43,6.25-6.2-.44.64-.86,1.29-1.31,1.92-1.43,2-3.49,3.17-5.46,1.45-2.58-2.24-2.3-5.37-.85-8.24,1-2,2.53-3.61,5.13-2.75.56.18.87,1.17,1.42,1.31,2,.52,2.31-.61,1.65-2.16-.74-1.72-2.33-1.64-3.85-1.49-4.4.44-7.59,4.5-7.53,9.62C325.53,159.94,326.15,163,330.05,163.29Z"/><path class="cls-1" d="M100.12,103.52c-6.06.79-7.7,3.91-7.18,9.27.07.63.07,1.28.18,3.4,2.14-4.64,2.5-8.62,6.45-10.12,3-1.13,5.39-1.73,5.12,3.1-.36,6.3-.22,12.62-.27,18.94,0,4.22,1.16,8.76-4.85,12.29a53.47,53.47,0,0,0,16.09-3.82c-5.6-1.23-5.62-1.23-5.63-6,0-7.81,0-15.62,0-23.43,0-1.73-.56-3.85,2.24-4.13,2.53-.26,4.94-.57,6.36,2.41.55,1.15-.49,3.28,2.06,3.47.79-3.39-.6-6.46-1.06-9.88C113,100.61,106.63,102.67,100.12,103.52Z"/><path class="cls-1" d="M139.35,131.08a36.15,36.15,0,0,0,12.08-2.8c-3.84-2.06-3.92-2.1-2.33-5.57,1.46-3.15,3.11-6.21,4.94-9.84,6.75,6.64,7.63,9.59,4.19,14.17a44.22,44.22,0,0,0,13.56-3.57c-2.4-1-4.38-1.85-5.62-4.09a111.64,111.64,0,0,0-6.32-10.15c-1.36-1.93-1.31-3.42-.16-5.41,3.24-5.58,5.34-11.91,10.68-16.41l-11.18,2.82c4.05,2.6,3.07,6.72-3,14.26-1.19-4.33-7.67-6.68-2.73-13-4.63,1.32-8.89,1.33-13.65,4.11,6.88,1.73,8.37,7.27,11.41,11.51a5,5,0,0,1,.36,5.88C148.36,119.21,145.77,125.82,139.35,131.08Z"/><path class="cls-1" d="M277.5,486.13c-3,.73-6.06,1.51-9,2.41a1.82,1.82,0,0,0-1.49,2.21c.33,1.17,1.39,1.25,2.74,1.24,2.73-.68,5.79-1.36,8.78-2.24a1.83,1.83,0,0,0,1.37-2.3A1.93,1.93,0,0,0,277.5,486.13Z"/><path class="cls-1" d="M85.9,130.9c-3,1.79-6.2,3.35-7.84,6.68-1.09,2.19-1.63,4.49.37,6.45s4.32,1.49,6.44.38a23,23,0,0,0,3.38-2.84c.51-.41.71-1.38,1.86-.48,4.79,3.73,5.44-.87,7.68-4.06-2.11.25-2,2-3.2,1.67s-.66-1.37-.67-2.08c-.09-3.16,0-6.32-.09-9.48-.06-3.65-.3-7.22-5.2-7.51-4.24-.24-9.11,3.22-9.82,7-.21,1.11-.66,2.54.9,2.87a2.71,2.71,0,0,0,3.13-1.89c.24-.69-.21-1.6-.27-2.41-.15-2.43,1.58-3.14,3.45-3.42,2.22-.32,2.72,1.28,3,3.07C89.51,127.66,88.3,129.44,85.9,130.9Zm1.95,9.19c-1.12,1.25-2.39,2.44-4.27,1.44-2.08-1.11-2-3.07-1.22-4.74,1.16-2.65,3.47-4.25,6.72-5.79C88.89,134.45,90.15,137.52,87.85,140.09Z"/><path class="cls-1" d="M267.9,156c-8.17,2.08-2,11.66-8.57,14.9,4.45.73,3.45,4,3.9,6.46.49,2.64.82,5.37,5.51,4.34-5.54-3.18-4.76-9.2-4.59-12.8C264.32,165,263.25,159.35,267.9,156Z"/><path class="cls-1" d="M147.25,250.61c.37,4.74,1,5.29,4.75,4.66-4.59-3.36-4.91-19.18-.09-25.08-3.67,1.2-5,3.37-4.85,6.41.18,3.37-.67,6.14-4.64,8.51C147.66,244.94,147,248,147.25,250.61Z"/><path class="cls-1" d="M329.14,476.09c.4,1.18,1.54,1,3,1,2.75-.69,6-1.45,9.15-2.33a1.64,1.64,0,0,0,1.36-1.82,1.8,1.8,0,0,0-2.14-1.6c-3.23.65-6.44,1.44-9.63,2.29C329.77,473.93,328.64,474.59,329.14,476.09Z"/><path class="cls-1" d="M298.61,481.13c-3.2.78-6.4,1.57-9.57,2.46-1,.27-2,1.06-1.84,2.06.25,1.32,1.54,1.56,3.24,1.37,2.76-.7,6-1.43,9.13-2.36a1.76,1.76,0,0,0,1.41-2.25A1.88,1.88,0,0,0,298.61,481.13Z"/><path class="cls-1" d="M276.86,176.13c3.78-1.28,7.64-2.5,5.49-8a7.07,7.07,0,0,1-.05-2.48c0-2.5.33-5.43-3.17-5.72-3.31-.27-6,1-7.27,4.89,2.16.29,2.19-1.1,2.87-1.7a3.89,3.89,0,0,1,4.12-1,1.83,1.83,0,0,1,1.16,2c-.11,1.78-1.66,1.93-2.85,2.31-2.1.68-4.09,1.49-5.3,3.46s-1.41,3.76,0,5.59S275.11,176.72,276.86,176.13Zm-3.12-4.29c.36-2.93,2.84-3.29,4.5-3.94,1.88-.14,2.34.47,1.91,1.75-.75,2.24-1.56,4.49-4.48,4.51A1.85,1.85,0,0,1,273.74,171.84Z"/><path class="cls-1" d="M320.56,476.1q-5.52,1.22-11,2.69a1.53,1.53,0,0,0-1,2c.35,1.18,1.39,1.24,2.94,1.18,2.69-.66,5.89-1.37,9.05-2.25a2.24,2.24,0,0,0,1.75-2.17A1.53,1.53,0,0,0,320.56,476.1Z"/><path class="cls-1" d="M282.83,220.84c.25-2.9-.41-6.06,2.75-8,.52-.31.82-1.33,0-1.57-3.7-1.08-2.29-4.26-2.85-6.61s-1.28-4.6-4.6-3.53c4.68,3.89,4.62,19-.34,26C281.44,226,282.58,223.74,282.83,220.84Z"/><path class="cls-1" d="M585.62,424.06c2.72-.69,5.47-1.28,8.14-2.13.81-.25,1.89-1,1.31-2.25a1.84,1.84,0,0,0-2.1-1c-2.76.54-5.5,1.21-8.25,1.85-1,.24-2.09.91-1.89,2C583.06,423.8,584.29,424.17,585.62,424.06Z"/><path class="cls-1" d="M725.7,63.71c3.66-.89,7.33-1.74,11-2.69,1-.25,1.93-.82,1.62-2.05s-1.5-1.23-2.42-1.06q-5.5,1.06-11,2.38c-.95.23-1.93.89-1.6,2.09S724.57,63.78,725.7,63.71Z"/><path class="cls-1" d="M768.65,54c4.33-.85,6.09.77,5.84,5.29-.11,1.9-1.57,5.62,1.82,5.51,2.58-.08.67-3.62,1.32-5.16,0-8.75-2.5-11-9.43-8.8-1.12.34-2.56.33-2.33,1.89S767.45,54.23,768.65,54Z"/><path class="cls-1" d="M191.06,325.38c.3,2,.38,4.27,2.89,4.53s4.88,0,6.05-3.34c-2.29-.29-4.94,3.29-6.05-.3-.76-2.42-.49-5.25-.28-7.87.25-3,4.23-1.25,5.38-3.86-1.75-1.54-3.34.59-4.84-.26-1.18-.68.48-3.6-2.05-3-1.85.41-.89,2.6-1.52,3.87-.53,1.07-2.32.56-2.57,2.25C193.07,318.44,190.63,322.46,191.06,325.38Z"/><path class="cls-1" d="M184.8,182.61c-4.67-.6-5.61-1.07-7.16-3.84-1.21,2.23-.28,5.76-4.48,6.33,6.71.78,2.75,5.34,3.55,7.92.57,1.84,0,4.28,2.44,4.84s4.69.06,6.3-3c-2.39-.16-5,2.8-6-.29-.79-2.41-.47-5.24-.44-7.88C179.06,182.84,183.92,185.51,184.8,182.61Z"/><path class="cls-1" d="M198.55,226.11c-1.89,0-1.16,2-1.23,3.19a61.32,61.32,0,0,1-.56,7.94,3.81,3.81,0,0,1-3.9,3.25c-2.19-.15-2.1-2.21-2.16-3.86-.08-2.33-.07-4.66-.11-7,0-.92-.37-1.68-1.41-1.64s-1.42.67-1.38,1.66c.12,3.32.08,6.66.42,10,.2,2,1.65,3.19,3.77,3.32,2.8.18,4.54-3.17,7.56-2.25.07-1.79.15-3.59.22-5.38,0-.5,0-1,0-1.5h0c0-1.5.1-3,0-4.49C199.61,228.15,200.51,226.12,198.55,226.11Z"/><path class="cls-1" d="M185.23,276c2.83-1.48,2.5-5.27,5.07-6.87,2.13.89,2.49,4.06,6,4.71-2.1-3.18-3.25-7.07-6-7.16s-3.15,4.1-4.49,6.46C185.31,273.86,184.4,274.66,185.23,276Z"/><path class="cls-1" d="M160.37,202.42c2.43,0,1.35-2.84,1.48-4.5.16-2-.17-4,.17-5.94.4-2.23,1.7-4.15,4.3-4s2.05,2.49,2.22,4.21c.27,2.76-.51,5.6.8,8.9,1.65-3.29,2.06-11.49,1-13.44a3.63,3.63,0,0,0-4.18-1.9c-6.29.95-7,1.82-6.92,8.51a27.63,27.63,0,0,0,.06,4C159.54,199.73,158.21,202.44,160.37,202.42Z"/><path class="cls-1" d="M749.34,58.16c1.82-.42,5.06-1.13,8.28-1.91,1-.24,2-.78,1.75-2a1.78,1.78,0,0,0-2.31-1.34c-3.42.72-6.82,1.49-10.21,2.36-1,.24-1.92.89-1.44,2.15S746.85,58.63,749.34,58.16Z"/><path class="cls-1" d="M199,183.51c.13-4.22-1.74-4.88-4.37-4.61-4.3.44-7,3.77-7,8.71,0,3.39.09,7.08,4.61,7.47,4,.36,6.8-1.48,7.66-6.44-3.12,1.64-4.58,6.87-8.7,3.27-2.1-1.84-1.7-7.43.48-9.68C194.08,179.68,196.29,180.91,199,183.51Z"/><path class="cls-1" d="M138.11,243.33c-2.08-6.74-6.12-.29-9.19-.87-2.12-.39-2.08.85-2.08,2.16,0,4.29,0,8.57,0,13.67,2.14-1.1,2.29-2,2.35-3,.18-3-.53-6,.52-8.9.71-1.94,1.92-3.72,4.31-3.47,2.61.28,2,2.56,2.25,4.29.4,2.74-1,5.77,1.47,9C139,251.44,139.28,247.16,138.11,243.33Z"/><path class="cls-1" d="M119.19,298.78c4-.51,8.25-.43,11.66-3.22C126.8,296.1,122.6,296.12,119.19,298.78Z"/><path class="cls-1" d="M776.17,97.72c2.22,0,1.43-2.57,1.38-4s1-4.3-1.69-4.29c-2.18,0-1.25,2.57-1.55,4.1C774.66,95.05,773.53,97.76,776.17,97.72Z"/><path class="cls-1" d="M119.1,293.71c3.58-.8,7.17-1.58,10.75-2.41.62-.14,1.35-.45,1.12-1.3-.1-.35-.7-.9-.89-.84C126.38,290.46,122.09,290.07,119.1,293.71Z"/><path class="cls-1" d="M119,252.23c0-.5,0-1,0-1.5,0-6.92,0-6.92-6.78-4.16,1.24,2,4.31-1.15,4.46,2,.23,4.7,2,10.25-5.53,11.89,5.78.5,10-.73,12.45-3.15C119,257.3,119,257.3,119,252.23Z"/><path class="cls-1" d="M775.81,82.74c2.46.07,1.5-2.41,1.72-3.9a13.51,13.51,0,0,0,0-1.71c-.43-1.56,1-4.72-1.56-4.81s-1.56,3.06-1.8,4.89a5.31,5.31,0,0,0,0,1.49C774.4,80.21,773.49,82.67,775.81,82.74Z"/><path class="cls-1" d="M679.92,73.36A1.93,1.93,0,0,0,681,72c.05-1.07-1-1.36-1.75-1.22-4,.68-8.14.85-13.12,3.68C671.93,76.14,675.92,74.5,679.92,73.36Z"/><path class="cls-1" d="M127.94,121.45a62.32,62.32,0,0,0,6.8-1.54c4.71-1.13,5.55-3,3.16-7.31a7.11,7.11,0,0,0-7.88-3.9c-7.67,1.14-13.34,10.54-11.26,18.78,1.77,7,7.41,9.64,13.7,6.18a11.3,11.3,0,0,0,6-7.89c-2.36,2.14-4.14,4.87-7.44,5.62-3.95.91-5.81-1.25-6.85-4.7S124.65,121.87,127.94,121.45Zm-3.82-3.63c.65-3.35,1.7-6.8,5.6-7.24,3.15-.36,3.82,2.49,4.39,5.48-1.15,4.3-5.62,2.45-8.39,3.79C124.13,120.62,123.88,119,124.12,117.82Z"/><path class="cls-1" d="M158.52,335.85c.54,1.82,2.21,2.29,4,2.12,2.46-.23,3.86-3,6.83-2.61.72.09-.33-3.29,0-5.07a8.23,8.23,0,0,0,0-1.49h.09c0-1.49.09-3,0-4.47-.09-1.18.88-3.18-1.05-3.23s-1.16,2-1.31,3.19c-.4,3.2,1.06,6.68-1.35,9.58-.84,1-1.74,2.22-3.26,1.87-1.72-.4-2.25-1.8-2.27-3.42,0-2.48,0-5-.08-7.46,0-.73.07-1.81-1.19-1.66-.38.05-1,.55-1,.82C158.05,328,157.37,332,158.52,335.85Z"/><path class="cls-1" d="M155.91,243.24c.11,3.16.71,6.25,4.49,6.74,3.57.47,6.24-1.1,7-5.1-.89.72-1.75,1.5-2.69,2.15-1.46,1-3.06,1.37-4.64.33a3,3,0,0,1-1.63-2.92c.47-2.09,2.7-1.47,4.11-2.12.59-.26,1.33-.13,2-.34,1.76-.59,4.82.42,4-3.36-.68-3.28-2.47-5-5.91-4.58C158.74,234.54,155.76,238.66,155.91,243.24ZM163.7,236c1.5.11,2.87,1.65,2.2,2.67-1.7,2.57-4.69,2.13-7.57,2.29C159.05,237.79,160.43,235.73,163.7,236Z"/><path class="cls-1" d="M713,66.45c1.48-.13,3.42-.37,3.25-2.16s-2.2-1.76-3.57-1.3c-1.64.54-3.52.75-4.87,2.47A10,10,0,0,0,713,66.45Z"/><path class="cls-1" d="M168,284.42c-.17,3.7.26,7.39,5,7.54,3.68.13,6.6-1.37,7-6.28-2.63,2.26-4.12,6.24-8,3.45-2.3-1.64-2.28-7.16-.11-9.65,2.56-2.93,5-1.76,7.53,1,.8-3.41-.51-4.67-3.06-4.85C172.16,275.31,168.18,279.49,168,284.42Z"/><path class="cls-1" d="M150.52,286.82c.51,2.38,0,5,0,7.46,0,.93-1.22,2.63.89,2.61,1.67,0,1.28-1.61,1.3-2.71,0-2.66,0-5.32.08-8,0-1.37.19-2.93,1.87-3.06,2.12-.16,1.6,1.72,1.64,2.89.1,3.11,0,6.24,0,10.1,2.39-1.06,2.41-2.16,2.41-3.34,0-3,0-6,.11-9,0-1.31.8-2.32,2.13-2.23s1.13,1.44,1.16,2.34c.09,2.66.07,5.32.1,8,0,1-.16,2.17,1.34,2.06,1-.08,1.21-1,1.18-1.87-.1-3.48-.09-7-.42-10.45-.2-2.21-1.8-3.49-3.84-2.2-1.64,1-3.19,1-4.91,1.25C152.47,281.22,149.55,282.3,150.52,286.82Z"/><path class="cls-1" d="M564.71,428.69c3.21-.67,6.45-1.23,9.62-2.06,1-.27,2.14-1.14,1.59-2.58a2,2,0,0,0-2.44-1.19c-3.21.69-6.4,1.41-9.57,2.25a1.88,1.88,0,0,0-1.43,2.28A1.64,1.64,0,0,0,564.71,428.69Z"/><path class="cls-1" d="M116.71,347.61c.4,4.23,1.22,4.78,4.88,3.09-5.08-2.54-1.64-8.48-4.7-11.83,3.43-3.61-1-9.62,4.31-12.67-8.11,1.75-1.59,11.4-8.48,14.1C117.68,341.18,116.44,344.81,116.71,347.61Z"/><path class="cls-1" d="M180.19,324.14c-2.05.66-4.17,1.29-5.6,3s-1.94,3.48-.87,5.53c1,1.88,2.7,1.56,4.35,1.42,2.45-.2,4.05-3.45,7.06-1.94.41.21,1.23-.9.77-1.43-2-2.35-.79-5.08-1-7.62s-.59-5.15-3.9-5.27c-3.51-.12-6,1.38-7.46,5.13,3,.35,3-2.23,4.64-2.63,1.47-.36,3.06-.9,4,.77C183.28,323.13,181.71,323.64,180.19,324.14Zm2.37,3c-.73,3.1-2,4.85-4.8,4.92a1.74,1.74,0,0,1-1.9-2.27c.56-2.67,2.67-3.6,5.1-3.9C182.29,325.74,182.61,326.6,182.56,327.15Z"/><path class="cls-1" d="M689.26,71.76c1.92-.34,4-.5,5-2.6C694,67.71,693,67.83,692,67.91c-2,.19-4.22.56-5,2.65C686.66,71.55,688.24,71.94,689.26,71.76Z"/><path class="cls-1" d="M172.09,243.5c.66,1.61,1.76,3.08,3.52,3.13s4,.09,4.27-2.59c4,.92,0,5.17,2.77,6.72,1.57-.68,1.17-2.14,1.18-3.38q.06-6.7,0-13.42c0-2.21,1.2-4.31-3.46-3.37C173.38,232,169.38,236.9,172.09,243.5Zm5.2-11c2.37-1.12,3.8.48,4.26,2.65a11.13,11.13,0,0,1-1.71,8.79l.06,0-.11.1.05-.08c-2.56.78-5,.85-5.61-2.43C173.6,238.05,173.36,234.36,177.29,232.49Z"/><path class="cls-1" d="M702.72,69.17c1.08-.79,3.4-.58,3.64-2.84.13-1.23-1.18-1.35-2.17-1.2-1.75.27-3.89.4-4.36,2.41C699.56,68.69,701.11,69.13,702.72,69.17Z"/><path class="cls-1" d="M611.61,414.48c-2.54.59-5.13,1-7.65,1.68-1.07.28-2.44,1-2.12,2.28.28,1.14,1.57,1.57,2.86,1.43,2.56-.56,5.14-1,7.66-1.71,1.08-.3,2.32-1,2-2.38S612.93,414.18,611.61,414.48Z"/><path class="cls-1" d="M149.05,189.4c-4.24,1.51-6.12,4.76-6,9.27.08,3.32,1.05,6,4.73,6.48s6.36-.81,6.8-5.2a14.65,14.65,0,0,1-2.87,2.61c-1.43.75-3.11,1.32-4.69.15a3,3,0,0,1-1.39-3c.54-1.64,2.34-1.54,3.78-1.83.81-.15,1.59-.47,2.4-.6,2.34-.37,5-.4,3.61-4.07C154.3,190.21,152.45,188.19,149.05,189.4Zm-1.32,7c-1.33.41-2.07,0-1.93-1a4.63,4.63,0,0,1,4.26-4.22,2.47,2.47,0,0,1,3,2.62C152.61,197.15,149.1,195.13,147.73,196.4Z"/><path class="cls-1" d="M383.45,405.18c0,1.51.69,2.24,2.14,2.24,7.09,0,14.17,0,21.26,0,.89,0,1.08-.29,1.08-1.12,0-4.54,0-9.09,0-13.63,0-.76.2-.95,1-1,2.8-.05,5.61.17,8.42-.15a24.44,24.44,0,0,0,16.71-9,25,25,0,0,0,0-31.79c-4.43-5.48-10.2-8.93-17.28-9.15-10.43-.32-20.87-.11-31.3-.1-1.32,0-2,.76-2,2.17v30.74h0Q383.44,389.81,383.45,405.18Z"/><path class="cls-1" d="M439.65,377.09c-.15.22-.3.44-.43.67a26.67,26.67,0,0,1-15.83,14.4c-4.05,1.47-8.28,1.57-12.53,1.44-.86,0-1.16.16-1.15,1.1.07,4.59.05,9.17.05,13.75q0,9.94,0,19.87c0,1.35.49,2,1.64,2a44.59,44.59,0,0,0,7-.23,24.71,24.71,0,0,0,21-22.69C440.06,397.44,439.53,387.42,439.65,377.09Z"/></g></g></svg>